<?xml version="1.0" encoding="UTF-8"?>
<svg id="Layer_2" data-name="Layer 2" xmlns="http://www.w3.org/2000/svg" viewBox="0 0 250 250">
  <defs>
    <style>
      .cls-1 {
        fill: #fff;
      }

      .cls-2 {
        fill: #fbfbef;
      }
    </style>
  </defs>
  <g id="Layer_1-2" data-name="Layer 1">
    <g>
      <path class="cls-1" d="M125,230c-57.9,0-105-47.1-105-105S67.1,20,125,20s105,47.1,105,105-47.1,105-105,105Z"/>
      <path class="cls-2" d="M125,40c46.87,0,85,38.13,85,85s-38.13,85-85,85-85-38.13-85-85S78.13,40,125,40M125,0C55.96,0,0,55.96,0,125s55.96,125,125,125,125-55.96,125-125S194.04,0,125,0h0Z"/>
    </g>
  </g>
</svg>